<svg width="230" height="31" viewBox="0 0 230 31" fill="none" xmlns="http://www.w3.org/2000/svg">
<g clip-path="url(#clip0_308_48)">
<path d="M15.0584 4.68261V0H4.54921H0V4.68261V26.3174V31H4.54921H15.0584V26.3174H4.54921V4.68261H15.0584Z" fill="#4E56FF"/>
<path d="M19.6077 26.3174V31H30.1169H34.6661V26.3174V4.68261V0H30.1169H19.6077V4.68261H30.1169V26.3174H19.6077Z" fill="#4E56FF"/>
<path d="M25.5677 9.36523H19.6077V14.0478H25.5677V9.36523Z" fill="#48D259"/>
<path d="M9.09839 9.36523V13.9918H15.0584V26.3174H19.6076V9.36523H9.09839Z" fill="#4E56FF"/>
<path d="M61.4366 9.52832H69.1738C71.6835 9.52832 73.4111 10.1754 74.5051 11.3575C75.4456 12.3257 75.9704 13.6199 75.9704 15.286V15.3421C75.9704 17.9254 74.6635 19.5916 72.624 20.5088L76.4951 26.3735H71.2677L67.9758 21.2629H65.9908V26.3735H61.496L61.4416 9.52832H61.4366ZM68.9659 17.5993C70.4806 17.5993 71.3716 16.8452 71.3716 15.6071V15.551C71.3716 14.2058 70.4311 13.5587 68.9164 13.5587H65.9364V17.5942H68.9708L68.9659 17.5993Z" fill="#4E56FF"/>
<path d="M80.7274 9.52832H93.8503V13.5129H85.2222V16.0402H93.0633V19.6986H85.2222V22.338H93.9543V26.3225H80.7274V9.52832Z" fill="#4E56FF"/>
<path d="M98.9243 9.52832H103.474V26.3174H98.9243V9.52832Z" fill="#4E56FF"/>
<path d="M108.963 9.52832H113.201L119.893 18.4095V9.52832H124.388V26.3174H120.413L113.458 17.1153V26.3174H108.963V9.52832Z" fill="#4E56FF"/>
<path d="M135.417 9.41602H139.758L146.713 26.3172H141.852L140.649 23.3059H134.377L133.229 26.3172H128.472L135.427 9.41602H135.417ZM139.392 19.6933L137.56 14.9037L135.729 19.6933H139.387H139.392Z" fill="#4E56FF"/>
<path d="M176.201 9.52832H189.324V13.5129H180.696V16.0402H188.537V19.6986H180.696V22.338H189.478V26.3225H176.251V9.52832H176.197H176.201Z" fill="#4E56FF"/>
<path d="M194.289 9.52832H202.655C204.695 9.52832 206.16 10.0684 207.1 11.0365C207.729 11.7346 208.145 12.5957 208.145 13.7269V13.7829C208.145 15.7191 207.1 16.9064 205.635 17.5484C207.62 18.1955 208.878 19.3776 208.878 21.6399V21.696C208.878 24.5494 206.576 26.3225 202.71 26.3225H194.289V9.52832V9.52832ZM201.556 16.2542C202.918 16.2542 203.7 15.7701 203.7 14.802V14.7459C203.7 13.8288 203.022 13.2938 201.66 13.2938H198.735V16.2542H201.556V16.2542ZM202.234 22.6029C203.596 22.6029 204.432 22.0628 204.432 21.0438V20.9877C204.432 20.0706 203.754 19.4795 202.234 19.4795H198.784V22.6029H202.234Z" fill="#4E56FF"/>
<path d="M230 21.0439H213.476V25.7266H230V21.0439Z" fill="#48D259"/>
<path d="M58.0359 9.52832H52.0214H41.5122V14.2058H47.4722V26.3174H52.0214V14.2058H58.0359V9.52832Z" fill="#4E56FF"/>
<path d="M167.257 9.52822L164.385 19.2654L161.247 9.47217H157.326L154.238 18.9444L152.203 12.5396L151.312 9.52822H151.258H146.604L152.045 26.4804H155.965L156.277 25.3492H156.331V25.2932L159.208 16.7891L162.499 26.4804H166.474L171.91 9.52822H167.257Z" fill="#4E56FF"/>
</g>
<defs>
<clipPath id="clip0_308_48">
<rect width="230" height="31" fill="white"/>
</clipPath>
</defs>
</svg>
